<?xml version="1.0" encoding="UTF-8" standalone="no"?>
<svg xmlns="http://www.w3.org/2000/svg" width="59.99999237060547mm" height="91.49998474121094mm" viewBox="0 0 59.99999237060547 91.49998474121094">
<desc>Created with Glowforge for Fusion 360. To download visit: https://cam.autodesk.com/hsmposts?p=glowforge</desc>
<!-- CAM Setup Info:
Work Area Width: 59.99999237060547mm
Work Area Height: 91.49998474121094mm
Work Area Too Small?: false
Stock box Upper Right: 27.999996185302734,43.74999237060547
Stock box Lower Left: -27.999996185302734,-43.74999237060547
Origin: 0,0
Selected Colors: #0000d3, #02abea, #1fb714, #dd0907, #f20884, #fbf305
-->
<g id="global-translation-frame" transform="translate(30, 45.75) scale(1, 1)">
<g id="opperation-1">
    <title>2D Profile1 (Op: 1/1)</title>
    <path d="M -15.954 -31.571
             A 0.898 0.898 0 0 1 -15.862 -31.174
             L -15.862 -18.158
             A 0.898 0.898 0 0 1 -16.76 -17.26
             L -20.711 -17.26
             A 0.898 0.898 0 0 1 -21.609 -18.158
             L -21.609 -31.174
             A 0.898 0.898 0 0 1 -20.711 -32.073
             L -16.76 -32.073
             A 0.898 0.898 0 0 1 -15.954 -31.571
             M 5.789 -33.896
             L 5.789 -20.099
             L -5.968 -20.099
             L -5.968 -35.048
             A 0.102 0.102 0 0 0 -6.069 -35.149
             L -7.388 -35.149
             L -7.388 -37.246
             L -5.291 -37.246
             L -5.291 -34.998
             A 0.102 0.102 0 0 0 -5.189 -34.896
             L 5.789 -34.896
             L 5.789 -33.896
             M 11.327 -34.635
             L 11.327 -38.528
             L 14.665 -38.528
             L 14.665 -34.432
             L 11.327 -34.432
             L 11.327 -34.635
             M 11.49 -26.721
             L 15.318 -30.55
             L 20.822 -30.55
             L 24.713 -26.659
             L 24.713 -21.155
             L 20.822 -17.264
             L 15.318 -17.264
             L 11.427 -21.155
             L 11.427 -26.659
             L 11.49 -26.721
             M 3.005 7.592
             A 13.348 13.348 0 0 1 12.758 23.755
             A 13.348 13.348 0 0 1 -3.405 33.508
             A 13.348 13.348 0 0 1 -13.158 17.345
             A 13.348 13.348 0 0 1 3.005 7.592
             M 27.102 7.592
             L 27.102 -30.776
             A 1.102 1.102 0 0 0 26 -31.878
             L 20 -31.878
             A 0.398 0.398 0 0 1 19.602 -32.276
             L 19.602 -41.75
             A 1.102 1.102 0 0 0 18.5 -42.852
             L -8.156 -42.852
             A 1.102 1.102 0 0 0 -9.258 -41.75
             L -9.258 -39.358
             A 2.898 2.898 0 0 1 -10.107 -37.309
             A 2.898 2.898 0 0 1 -12.156 -36.46
             L -26 -36.46
             A 1.102 1.102 0 0 0 -27.102 -35.358
             L -27.102 40.75
             A 2.102 2.102 0 0 0 -25 42.852
             L 25 42.852
             A 2.102 2.102 0 0 0 27.102 40.75
             L 27.102 7.592" fill="none" stroke="#0000d3" stroke-width="0.1"/>
</g>
</g>
</svg>
